<svg class="icon" viewBox="0 0 1024 1024" xmlns="http://www.w3.org/2000/svg" width="200" height="200"><path d="M895.283 399.933h-79.032a22.07 22.07 0 0 0-10.302 2.765l-35.614-107.09c-11.367-60.887-54.354-90.316-107.131-90.316H328.499c-60.62 0-97.403 39.444-107.151 90.255L185.63 402.985a21.975 21.975 0 0 0-10.937-3.093H95.683a21.975 21.975 0 0 0-22.016 21.955v19.046c0 12.104 9.85 21.975 22.016 21.975l29.9 5.12a137.564 137.564 0 0 0-14.807 64.062l-11.08 126.362c0 3.645.267 7.372.717 11.14a42.189 42.189 0 0 0-.716 7.169v152.023c0 21.647 17.571 39.157 39.26 39.157h59.904a39.199 39.199 0 0 0 39.28-39.157v-48.825h515.4v48.825c0 21.647 17.572 39.157 39.26 39.157h59.945a39.199 39.199 0 0 0 39.26-39.157V676.7c0-2.396-.266-4.792-.737-7.147.45-3.769.737-7.496.737-11.162l-11.1-126.362c0-24.596-5.406-45.67-14.868-64.143l29.225-4.956a21.975 21.975 0 0 0 22.036-21.975v-19.047a22.077 22.077 0 0 0-22.036-21.975zm-647.557-22.466l26.153-69.468.328-1.639c2.6-14.008 8.397-16.548 16.998-27.361h409.56c8.683 11.141 14.09 13.967 16.445 27.259l26.603 71.27 9.749 38.708c-2.212 28.323-36.352 50.688-64.676 50.688H302.653c-28.385 0-62.525-22.365-64.716-50.709l9.79-38.748zm18.31 330.383a59.392 59.392 0 1 1 5.18-118.62 59.392 59.392 0 0 1-5.18 118.62zm332.205-43.766a17.695 17.695 0 0 1-17.694 17.634H413.696a17.695 17.695 0 0 1-17.695-17.613v-49.582c0-9.749 7.947-17.633 17.695-17.633h166.85c9.749 0 17.695 7.884 17.695 17.612v49.582zm127.263 43.766a59.392 59.392 0 0 1-59.494-59.31 59.392 59.392 0 0 1 59.494-59.31 59.392 59.392 0 0 1 59.474 59.31 59.433 59.433 0 0 1-59.474 59.31z"/></svg>