<svg class="icon" viewBox="0 0 1024 1024" xmlns="http://www.w3.org/2000/svg" width="200" height="200"><path d="M929.707 299.437H93.792c-16.575 0-30.013-13.1-30.013-29.676s13.438-29.676 30.013-29.676h835.916c16.576 0 30.014 13.1 30.014 29.676s-13.438 29.676-30.015 29.676zM775.64 546.054H93.791c-16.575 0-30.013-13.612-30.013-30.188s13.438-30.187 30.013-30.187H775.64c16.576 0 30.014 13.612 30.014 30.187s-13.438 30.188-30.014 30.188zM929.707 791.647H93.792c-16.575 0-30.013-13.1-30.013-29.676s13.438-29.676 30.013-29.676h835.916c16.576 0 30.014 13.1 30.014 29.676s-13.438 29.676-30.015 29.676z"/></svg>