<svg class="icon" viewBox="0 0 1024 1024" xmlns="http://www.w3.org/2000/svg" width="16" height="16"><defs><style/></defs><path d="M819.2 819.2H1024V716.8H819.2zm-102.4-512v102.4H1024V307.2zM768 614.4h256V512H768zm-244.224-61.952a256 256 0 1 0-330.752 0A358.4 358.4 0 0 0 0 870.4a339.456 339.456 0 0 0 4.096 51.2h102.4a280.064 280.064 0 0 1-4.096-51.2 256 256 0 0 1 512 0 280.064 280.064 0 0 1-5.12 51.2h102.4a339.456 339.456 0 0 0 5.12-51.2 358.4 358.4 0 0 0-193.024-317.952zM358.4 512A153.6 153.6 0 1 1 512 358.4 153.6 153.6 0 0 1 358.4 512z"/></svg>